<svg id="Layer_1" data-name="Layer 1" xmlns="http://www.w3.org/2000/svg" viewBox="0 0 5 5"><defs><style>.cls-1{fill:#fff;}.cls-2{fill:#32c36c;}</style></defs><circle class="cls-1" cx="2.5" cy="2.5" r="2.5"/><path class="cls-2" d="M2.1,2.58,2,2.66l0,0-.2-.2h0a.69.69,0,0,1-.83-.52A.71.71,0,0,1,1,1.5v0H1c.11.12.23.23.35.35a.26.26,0,0,0,.39,0,.27.27,0,0,0,0-.33l-.35-.34,0,0a.61.61,0,0,1,.18-.05.69.69,0,0,1,.77.48.73.73,0,0,1,0,.36l0,0-.22.21a.29.29,0,0,0,0,.43Z"/><path class="cls-2" d="M3.54,1.57a.47.47,0,0,0,.1.1c.12.13.25.26.38.38a.19.19,0,0,1,0,.28l-.53.52s0,0,0,0h0l-.12-.13-.43-.41,0,0H2.58a.05.05,0,0,0,0,0l-.15.14a.17.17,0,0,1-.22,0,.18.18,0,0,1,0-.22l0,0L2.36,2A.2.2,0,0,1,2.5,2h.61l0,0,.38-.38Z"/><path class="cls-2" d="M3,3.64l0,0a.27.27,0,0,0,0-.39s0,0,0,0a.27.27,0,0,0-.17-.25s0,0,0,0a.26.26,0,0,0-.26-.22.06.06,0,0,1-.06,0l0,0,.17-.15h.24l.84.84a.24.24,0,0,1,.08.09.33.33,0,0,1,0,.37.34.34,0,0,1-.32.19.33.33,0,0,1-.25-.1c-.06-.06-.13-.12-.19-.19Z"/><path class="cls-2" d="M2.6,3.49l-.07,0a.14.14,0,0,1-.16-.2l0,0,0,0a.14.14,0,0,1-.17,0,.13.13,0,0,1,0-.16,0,0,0,0,0,0,0h0A.14.14,0,0,1,2,2.87l.17-.16a.12.12,0,0,1,.17,0,.13.13,0,0,1,0,.16s0,0,0,0l.06,0,.07,0a.13.13,0,0,1,.14.06.12.12,0,0,1,0,.15l0,0h0a.14.14,0,0,1,.16.05.12.12,0,0,1,0,.17l0,0h0A.14.14,0,0,1,3,3.37a.12.12,0,0,1,0,.15l-.13.15a.13.13,0,0,1-.15.05.14.14,0,0,1-.1-.1.28.28,0,0,1,0-.09Z"/></svg>