<svg id="Layer_1" data-name="Layer 1" xmlns="http://www.w3.org/2000/svg" viewBox="0 0 5 5"><defs><style>.cls-1{fill:none;}.cls-2{fill:#32c36c;}.cls-3{fill:#fff;}</style></defs><line class="cls-1" x1="0.99" y1="2.64" x2="0.77" y2="2.77"/><line class="cls-1" x1="1.63" y1="2.27" x2="1.51" y2="2.34"/><circle class="cls-2" cx="2.5" cy="2.5" r="2.5"/><line class="cls-1" x1="2.52" y1="2.53" x2="2.48" y2="2.47"/><line class="cls-1" x1="2.51" y1="2.51" x2="2.5" y2="2.49"/><path class="cls-3" d="M2.54,1A.44.44,0,0,1,2.69,1a.3.3,0,0,1,.2.3.5.5,0,0,0,0,.16.25.25,0,0,1,0,.22l-.11.19a.78.78,0,0,0,0,.14c0,.09-.1.14-.24.14S2.28,2.11,2.26,2l-.09-.19c0-.08-.07-.16-.1-.25a.18.18,0,0,1,0-.1,2.08,2.08,0,0,0,0-.23A.35.35,0,0,1,2.41,1h.13Z"/><path class="cls-3" d="M2.14,2.16a.57.57,0,0,1,.2.38h.32a.57.57,0,0,1,.2-.38l.39.17c.18.07.22.19.11.35h0a1,1,0,0,1-1.7,0,.22.22,0,0,1,0-.08.18.18,0,0,1,.07-.24l.14-.07Z"/><path class="cls-3" d="M2,3.77l-.17-.08s-.06,0-.09,0l-.15.11c0-.07,0-.13,0-.18a.06.06,0,0,0,0-.08l-.16-.11.19,0a.05.05,0,0,0,.06-.06,1.89,1.89,0,0,0,.06-.18l.09.17a.08.08,0,0,0,.07,0h.19L2,3.5s0,0,0,.09S2,3.7,2,3.77Z"/><path class="cls-3" d="M3.4,3.82l-.16-.13H3.17L3,3.77l.06-.17a.07.07,0,0,0,0-.1l-.12-.11v0H3.1s.06,0,.07,0l.09-.17a1.54,1.54,0,0,1,.05.17.08.08,0,0,0,.09.07l.17,0-.16.11s0,.05,0,.07A1.68,1.68,0,0,0,3.4,3.82Z"/><path class="cls-3" d="M2.5,4l-.07-.18s0,0-.07,0H2.17l.13-.12c.05,0,.05-.06,0-.11s0-.1,0-.17l.17.1s0,0,.08,0l.17-.1c0,.08,0,.14,0,.2a.11.11,0,0,0,0,.07l.14.13H2.64s-.05,0-.07,0Z"/><path class="cls-3" d="M4.07,3.14a1.08,1.08,0,0,1-.19,0s0,0-.07,0l-.11.16a1.68,1.68,0,0,1,0-.18c0-.06,0-.07-.08-.08L3.42,3a.46.46,0,0,1,.14-.07.12.12,0,0,0,.07-.14V2.65l.14.13a.11.11,0,0,0,.08,0L4,2.73,4,2.9A.11.11,0,0,0,4,3Z"/><path class="cls-3" d="M1,2.73l.18.06s.06,0,.09,0a1.67,1.67,0,0,1,.13-.12,1.2,1.2,0,0,0,0,.19.08.08,0,0,0,0,.06,1,1,0,0,0,.17.1l-.1,0a.16.16,0,0,0-.16.18.58.58,0,0,1,0,.1l-.1-.15s0-.06-.09-.05a.84.84,0,0,1-.18,0L1.05,3a.09.09,0,0,0,0-.07C1,2.85,1,2.8,1,2.73Z"/></svg>