<svg id="Layer_1" data-name="Layer 1" xmlns="http://www.w3.org/2000/svg" viewBox="0 0 5 5"><defs><style>.cls-1{fill:#32c36c;}.cls-2{fill:#fff;}</style></defs><circle class="cls-1" cx="2.5" cy="2.5" r="2.5"/><path class="cls-2" d="M2.5,2.65H2s0,0,0,0V2.49a.36.36,0,0,1,.36-.33l.08,0a.18.18,0,0,0,.14,0l0,0a.2.2,0,0,1,.13,0A.35.35,0,0,1,3,2.52v.1a0,0,0,0,1,0,0H2.5Z"/><path class="cls-2" d="M3.11,2.49a.61.61,0,0,0,0-.18.37.37,0,0,0-.12-.13A.31.31,0,0,1,3,2.09.36.36,0,0,1,3.25,2a.12.12,0,0,1,.08,0,.17.17,0,0,0,.12,0l0,0a.23.23,0,0,1,.18,0A.37.37,0,0,1,4,2.36v.1a0,0,0,0,1,0,0H3.11Z"/><path class="cls-2" d="M2.06,2.18H2a.41.41,0,0,0-.15.29s0,0,0,0h-.8s0,0,0,0a.57.57,0,0,1,0-.13A.34.34,0,0,1,1.39,2a.15.15,0,0,1,.09,0,.2.2,0,0,0,.15,0h0A.22.22,0,0,1,1.8,2a.37.37,0,0,1,.25.17h0Z"/><path class="cls-2" d="M2.5,1.43a.33.33,0,0,1,.33.34.33.33,0,0,1-.66,0A.32.32,0,0,1,2.5,1.43Z"/><path class="cls-2" d="M3.75,1.59a.33.33,0,0,1-.33.33.33.33,0,0,1-.33-.33.34.34,0,0,1,.33-.33A.33.33,0,0,1,3.75,1.59Z"/><path class="cls-2" d="M1.25,1.59a.32.32,0,0,1,.32-.33.33.33,0,0,1,.33.33.33.33,0,1,1-.65,0Z"/><path class="cls-2" d="M2.26,3.27h.12s0,0,0,0A1.87,1.87,0,0,1,2.48,3s0,0,0,0,0,0,0,0l.07.22s0,0,0,0h.26a0,0,0,0,1,0,0l-.15.11-.06,0s0,0,0,0,.05.15.07.23h0v0s0,0,0,0l-.09-.06-.12-.08h0l-.2.14s0,0,0,0,0,0,0,0h0l.06-.18a.43.43,0,0,1,0,0s0,0,0,0l-.19-.14h0a0,0,0,0,1,0,0h.15Z"/><path class="cls-2" d="M1.67,3.07h.12s0,0,0,0l.07-.22h0s0,0,0,0L2,3s0,0,0,0h.25s0,0,0,0l-.12.09-.05,0H2s0,0,0,0,0,0,0,0l.07.05s0,0,0,0,0,.1,0,.16,0,0,0,0,0,0,0,0l-.18-.14a0,0,0,0,0,0,0l-.19.14h0s0,0,0,0v0l0-.08c0-.05,0-.1,0-.14s0,0,0,0l-.18-.13h0s0,0,0,0h.13Z"/><path class="cls-2" d="M2.87,3.07H3s0,0,0,0,.05-.14.07-.22,0,0,0,0h0l.06.22s0,0,0,0h.22s0,0,0,0,0,0,0,0l-.14.11,0,0s0,0,0,0l.06.21h0s0,0,0,0,0,0,0,0l0,0-.16-.11a0,0,0,0,0,0,0l-.18.14h0s0,0,0,0l0-.12A.13.13,0,0,1,3,3.28l0,0s0,0,0,0,0,0,0,0H2.91L2.74,3.1h0s0,0,0,0,0,0,0,0Z"/><path class="cls-2" d="M3.48,2.87h.11s0,0,0,0a1.72,1.72,0,0,1,.07-.21h0s0,0,0,0l.06.18v0s0,0,0,0H4s0,0,0,0L3.86,3s0,0,0,0l.06.19h0v0h0l-.06,0-.12-.09a0,0,0,0,0,0,0l-.17.13h0v0l.06-.17a0,0,0,0,1,0,0l0,0V3h0a.11.11,0,0,1-.08,0l-.13-.09s0,0,0,0,0,0,0,0Z"/><path class="cls-2" d="M1.09,2.87h.1s0,0,0,0a1.72,1.72,0,0,1,.07-.21h0s0,0,0,0l0,0,.05.14,0,.06s0,0,0,0h.23s0,0,0,0L1.53,3l0,0H1.41s0,0,0,0l0,0v0c0,.05,0,.1.05.16s0,0,0,0h0l-.17-.13a0,0,0,0,0,0,0l-.17.12h0s0,0,0,0l0-.14a.64.64,0,0,0,0-.07s0,0,0,0L1,2.91H1a0,0,0,0,1,0,0Z"/></svg>