<svg id="Layer_1" data-name="Layer 1" xmlns="http://www.w3.org/2000/svg" viewBox="0 0 5 5"><defs><style>.cls-1{fill:#32c36c;}.cls-2{fill:#fff;}</style></defs><circle class="cls-1" cx="2.5" cy="2.5" r="2.5"/><path class="cls-2" d="M3.69,2.5a1.19,1.19,0,0,1-.25.73A1.24,1.24,0,0,1,3,3.6a1.3,1.3,0,0,1-.34.08H2.35a1.14,1.14,0,0,1-.62-.28,1.17,1.17,0,0,1-.36-.54,1,1,0,0,1-.06-.41,1.15,1.15,0,0,1,.26-.69,1.21,1.21,0,0,1,.57-.4,1.27,1.27,0,0,1,.34-.05,1.2,1.2,0,0,1,.81.3,1,1,0,0,1,.14.15s0,0,0,0l-.19.14h0l-.15-.15a.93.93,0,0,0-.45-.18A1,1,0,0,0,2,1.72a.89.89,0,0,0-.39.54,1.63,1.63,0,0,0,0,.31A1.15,1.15,0,0,0,1.72,3a1,1,0,0,0,.38.33.8.8,0,0,0,.33.08A.86.86,0,0,0,3,3.3a.82.82,0,0,0,.39-.45,1,1,0,0,0,.07-.29c0-.05,0,0,0-.06l.2-.17s0,0,0,0A.86.86,0,0,1,3.69,2.5Z"/><path class="cls-2" d="M2.65,2.64l.07-.07.36-.35L3.4,2A3.82,3.82,0,0,1,4,1.56l.21-.1a.15.15,0,0,1,.21.11.15.15,0,0,1-.09.17A2.51,2.51,0,0,0,3.85,2a2.88,2.88,0,0,0-.39.3A5,5,0,0,0,3,2.74L2.75,3A.15.15,0,0,1,2.5,3a3.62,3.62,0,0,0-.26-.38l-.13-.14a.15.15,0,0,1,0-.21.16.16,0,0,1,.22,0,3.57,3.57,0,0,1,.3.38Z"/></svg>