<svg id="Layer_1" data-name="Layer 1" xmlns="http://www.w3.org/2000/svg" viewBox="0 0 5 5"><defs><style>.cls-1{fill:#fff;}.cls-2{fill:#32c36c;}</style></defs><circle class="cls-1" cx="2.5" cy="2.5" r="2.5"/><path class="cls-2" d="M1.89,3.69v-.1h.28V3.38H.69a.35.35,0,0,1,0-.11s0,0,0,0H4.18c.12,0,.12,0,.13.12H2.82v.22H3.1v.1Z"/><path class="cls-2" d="M2.59,2.6h.67l.07.52H2.59Z"/><path class="cls-2" d="M4.25,3.12H3.51l-.09-.51h.64s.05,0,.05,0S4.2,3,4.25,3.12Z"/><path class="cls-2" d="M1.5,3.12H.75l.06-.21a2.76,2.76,0,0,1,.08-.27,0,0,0,0,1,0,0h.65Z"/><path class="cls-2" d="M2.42,2.6v.52H1.67l.07-.52Z"/><path class="cls-2" d="M1.68,2c0,.17-.05.33-.08.49l0,0H.93L1.07,2Z"/><path class="cls-2" d="M4.07,2.48H3.4L3.32,2h.56s.05,0,.06,0l.12.44A.08.08,0,0,0,4.07,2.48Z"/><path class="cls-2" d="M1.75,2.47,1.82,2h.6v.51Z"/><path class="cls-2" d="M2.58,2h.6l.07.51H2.58Z"/><path class="cls-2" d="M1.84,1.83l.06-.49,0,0h.49v.52Z"/><path class="cls-2" d="M1.78,1.31l-.08.52H1.11c0-.05,0-.09,0-.14l.09-.34s0,0,0,0Z"/><path class="cls-2" d="M3.22,1.31h.5a0,0,0,0,1,0,0c0,.16.09.32.14.49H3.35s-.05,0-.06,0,0-.31-.07-.46Z"/><path class="cls-2" d="M2.57,1.83V1.31h.52l.07.52Z"/></svg>