<svg id="Layer_1" data-name="Layer 1" xmlns="http://www.w3.org/2000/svg" viewBox="0 0 5 5"><defs><style>.cls-1{fill:#fff;}.cls-2{fill:#32c36c;}</style></defs><circle class="cls-1" cx="2.5" cy="2.5" r="2.5"/><path class="cls-2" d="M2.58,3.89H2.47a.54.54,0,0,1,0-.08l.14-.07-.14-.06c0-.08,0-.08-.33-.07A.15.15,0,0,0,2,3.74H1.08s0,0-.07-.05.05-.06.07-.07a1.2,1.2,0,0,1,.19,0c.11,0,.15-.05.15-.16V3.31l.05-.05s0,0,.06,0l.1.09s.05,0,.05-.06a1.59,1.59,0,0,0-.08-.18l.18-.05V3l-.19-.07a1.45,1.45,0,0,0,.1-.18l0,0-.18.09a1.34,1.34,0,0,1-.07-.18c-.1,0-.09,0-.09.1a.1.1,0,0,1,0,.08s-.05,0-.08,0L1.11,2.7l-.06.06.09.17L1,3v.08c.06,0,.17,0,.18.06s-.06.11-.09.17l.07.07a1.71,1.71,0,0,1,.11-.14c.15.06.05.18.09.28H1.06a.25.25,0,0,0-.15.1.17.17,0,0,0,.17.25h.83c.06,0,.09,0,.11.06A.15.15,0,0,0,2.13,4a3.42,3.42,0,0,0,.45,0s0,0,0,0S2.6,3.89,2.58,3.89ZM1.24,3a.13.13,0,0,1,.12-.14A.14.14,0,0,1,1.5,3a.13.13,0,0,1-.13.14A.13.13,0,0,1,1.24,3Zm1.11.84H2.12V3.72h.23Z"/><path class="cls-2" d="M4.11,2.92c0-.1,0-.14-.14-.14H3.2c-.1,0-.14,0-.14.14,0,.26,0,.52,0,.78,0,.1,0,.13.14.13H4c.1,0,.14,0,.14-.13V2.92Zm-.31,0H4v.22C3.83,3.13,3.76,3.07,3.8,2.87Zm-.33,0h.22V3H3.47Zm-.11,0c0,.17,0,.25-.22.21C3.14,2.84,3.08,2.86,3.36,2.88Zm-.22.31h.1v.24h-.1Zm.22.56H3.15V3.52C3.33,3.49,3.41,3.56,3.36,3.75Zm.34,0H3.47v-.1H3.7Zm-.12-.18a.26.26,0,1,1,.27-.26A.26.26,0,0,1,3.58,3.57ZM4,3.74H3.8c0-.15,0-.25.22-.22Zm0-.31h-.1V3.19H4Z"/><path class="cls-2" d="M3.53,3.43a.31.31,0,0,1,0-.08l-.11,0,.16-.25v.18h.13l-.23.28A1,1,0,0,0,3.53,3.43Z"/><path class="cls-2" d="M3.46,1a.57.57,0,0,0-.58.56.59.59,0,0,0,.57.59A.59.59,0,0,0,4,1.58.57.57,0,0,0,3.46,1Zm-.33.88h.21v0s.08-.11.12-.11.09.07.13.1a0,0,0,0,1,0,0h.21A.44.44,0,0,1,3.13,1.89Zm.72-.12a.21.21,0,0,1-.25-.08,1.37,1.37,0,0,0,.13-.2.17.17,0,0,0,0-.1l-.07.05-.06.08c0,.07-.08.14-.19.12a.14.14,0,0,0-.1.05c-.07.12-.18.08-.28.08a.93.93,0,0,1,0-.13l.1-.06L3,1.51l.1-.23.09.07c.09,0,0-.08,0-.14l.23-.09a.54.54,0,0,0,.06.11l.08-.11.22.09c0,.05-.12.09,0,.14l.09-.07.1.23-.12.07.12.07S3.88,1.75,3.85,1.77Z"/><path class="cls-2" d="M2.12,1h-1C1,1,1,1.05,1,1.15V2c0,.11.05.15.16.15h1c.11,0,.16,0,.16-.15V1.16A.14.14,0,0,0,2.12,1Zm0,1H1.09V1.12H2.16Z"/><path class="cls-2" d="M1.59,1.94s0,.06-.06.07H1.21c-.08,0-.05-.06-.05-.12h.37S1.57,1.93,1.59,1.94Z"/><path class="cls-2" d="M1.59,1.22a.12.12,0,0,1-.05.05H1.16V1.16h.38S1.58,1.2,1.59,1.22Z"/><path class="cls-2" d="M1.5,1.55a1.13,1.13,0,0,0-.26,0c-.08,0-.1,0-.08-.11h.42C1.61,1.52,1.59,1.56,1.5,1.55Z"/><path class="cls-2" d="M1.5,1.87H1.16v-.1h.42C1.61,1.84,1.59,1.88,1.5,1.87Z"/><path class="cls-2" d="M1.59,1.35a.07.07,0,0,1,0,0H1.16V1.3c.13,0,.26,0,.38,0A.06.06,0,0,1,1.59,1.35Z"/><path class="cls-2" d="M1.59,1.68s0,.05-.05.05H1.16V1.62c.13,0,.26,0,.39,0S1.59,1.66,1.59,1.68Z"/><path class="cls-2" d="M2,2H1.79C1.7,2,1.68,2,1.7,1.9h.39C2.12,2,2.09,2,2,2Z"/><path class="cls-2" d="M2.09,1.44v.11H1.74s0-.05-.06-.08l0,0Z"/><rect class="cls-2" x="1.7" y="1.16" width="0.4" height="0.1"/><path class="cls-2" d="M2,1.87H1.7v-.1h.39C2.11,1.83,2.1,1.88,2,1.87Z"/><rect class="cls-2" x="1.7" y="1.31" width="0.4" height="0.09"/><path class="cls-2" d="M2.09,1.63v.09H1.7s0-.05,0-.09Z"/></svg>